<?xml version="1.0" encoding="UTF-8"?>
<svg id="Camada_1" data-name="Camada 1" xmlns="http://www.w3.org/2000/svg" xmlns:xlink="http://www.w3.org/1999/xlink" viewBox="0 0 1920 1080">
  <defs>
    <style>
      .cls-1 {
        fill: none;
      }

      .cls-2 {
        letter-spacing: 0em;
      }

      .cls-3 {
        opacity: .7;
      }

      .cls-3, .cls-4, .cls-5 {
        fill: #e6e617;
      }

      .cls-6 {
        font-size: 13px;
      }

      .cls-6, .cls-7, .cls-8 {
        fill: #f9f6f1;
      }

      .cls-6, .cls-9, .cls-10, .cls-11, .cls-8 {
        font-family: Sora-Regular, Sora;
        font-variation-settings: 'wght' 400;
      }

      .cls-7 {
        font-size: 34px;
      }

      .cls-12 {
        font-family: Sora-Thin, Sora;
        font-variation-settings: 'wght' 100;
        font-weight: 200;
      }

      .cls-13 {
        font-family: ExoRoman-Medium, Exo;
        font-variation-settings: 'wght' 500;
        font-weight: 500;
      }

      .cls-4 {
        font-size: 30.44px;
      }

      .cls-14 {
        letter-spacing: 0em;
      }

      .cls-15 {
        letter-spacing: 0em;
      }

      .cls-16 {
        fill: #908f8f;
      }

      .cls-17 {
        letter-spacing: 0em;
      }

      .cls-17, .cls-18 {
        font-family: ExoRoman-Bold, Exo;
        font-variation-settings: 'wght' 700;
        font-weight: 700;
      }

      .cls-19 {
        letter-spacing: -.06em;
      }

      .cls-9 {
        letter-spacing: 0em;
      }

      .cls-20 {
        letter-spacing: -.01em;
      }

      .cls-21 {
        letter-spacing: -.01em;
      }

      .cls-22 {
        letter-spacing: -.01em;
      }

      .cls-23 {
        letter-spacing: 0em;
      }

      .cls-24 {
        letter-spacing: 0em;
      }

      .cls-25 {
        letter-spacing: 0em;
      }

      .cls-10 {
        letter-spacing: 0em;
      }

      .cls-26 {
        letter-spacing: 0em;
      }

      .cls-27 {
        letter-spacing: 0em;
      }

      .cls-28 {
        fill: #333;
      }

      .cls-29 {
        letter-spacing: 0em;
      }

      .cls-30 {
        letter-spacing: 0em;
      }

      .cls-31 {
        letter-spacing: 0em;
      }

      .cls-8 {
        font-size: 21px;
      }

      .cls-32 {
        clip-path: url(#clippath);
      }
    </style>
    <clipPath id="clippath">
      <rect class="cls-1" x="353.96" y="401.37" width="1212.07" height="277.27" rx="30.27" ry="30.27"/>
    </clipPath>
  </defs>
  <g class="cls-32">
    <path class="cls-28" d="M1206.96,763.94c-20.39-127.62-121.16-228.39-248.78-248.78-15.55-2.49-31.49-3.82-47.75-3.82h-256.11c-165.88,0-300.35,134.47-300.35,300.35v256.11c0,165.88,134.47,300.35,300.35,300.35h256.11c165.88,0,300.35-134.47,300.35-300.35v-256.11c0-16.26-1.33-32.2-3.82-47.75Z"/>
    <path class="cls-16" d="M1321.07,437.8h-208.88c-135.29,0-244.97,109.68-244.97,244.97v208.88c0,129.1,99.88,234.79,226.57,244.21,6.08.45,12.2.76,18.39.76h208.88c135.29,0,244.97-109.67,244.97-244.97v-208.88c0-135.29-109.68-244.97-244.97-244.97Z"/>
    <rect class="cls-1" x="380.57" y="461.59" width="1080" height="342.95"/>
  </g>
  <g>
    <text class="cls-7" transform="translate(1071.48 500.56)"><tspan class="cls-12" x="0" y="0">Thiago</tspan><tspan class="cls-11" x="114.1" y="0"> </tspan><tspan class="cls-9" x="121.85" y="0">F</tspan><tspan class="cls-11" x="140.55" y="0">ei</tspan><tspan class="cls-10" x="171.83" y="0">t</tspan><tspan class="cls-11" x="186.25" y="0">al</tspan></text>
    <text class="cls-8" transform="translate(1071.48 542.03)"><tspan x="0" y="0">C</tspan><tspan class="cls-24" x="16.69" y="0">E</tspan><tspan x="29.17" y="0">O | O</tspan><tspan class="cls-29" x="82.93" y="0">P</tspan><tspan x="96.33" y="0">TIM</tspan><tspan class="cls-19" x="134.71" y="0">A</tspan><tspan x="149.41" y="0">T</tspan><tspan class="cls-24" x="161.89" y="0">E</tspan><tspan x="174.36" y="0">CH </tspan></text>
    <text class="cls-6" transform="translate(1071.48 654.67)"><tspan class="cls-26" x="0" y="0">R</tspan><tspan x="9.05" y="0">ua </tspan><tspan class="cls-20" x="27.65" y="0">V</tspan><tspan class="cls-2" x="36.67" y="0">isconde de </tspan><tspan class="cls-14" x="112.38" y="0">P</tspan><tspan x="120.73" y="0">i</tspan><tspan class="cls-31" x="124.73" y="0">r</tspan><tspan x="130.04" y="0">ajá, 414, Ipanema, Rio de Janei</tspan><tspan class="cls-25" x="328.03" y="0">r</tspan><tspan class="cls-22" x="333.28" y="0">o</tspan><tspan class="cls-15" x="341.88" y="0">, </tspan><tspan class="cls-27" x="348.25" y="0">R</tspan><tspan x="357.3" y="0">J</tspan></text>
    <text class="cls-6" transform="translate(1071.48 625.22)"><tspan x="0" y="0">thiag</tspan><tspan class="cls-21" x="34.11" y="0">o</tspan><tspan x="42.72" y="0">.</tspan><tspan class="cls-31" x="46.12" y="0">f</tspan><tspan class="cls-23" x="51.02" y="0">r</tspan><tspan x="56.28" y="0">ei</tspan><tspan class="cls-30" x="68.24" y="0">t</tspan><tspan x="73.75" y="0">al@optima</tspan><tspan class="cls-27" x="146.87" y="0">t</tspan><tspan x="152.36" y="0">ech</tspan><tspan class="cls-21" x="176.51" y="0">.</tspan><tspan x="179.74" y="0">com.br</tspan></text>
    <text class="cls-6" transform="translate(1071.48 595.77)"><tspan x="0" y="0" xml:space="preserve">+55 (21) 9  9744 9663</tspan></text>
  </g>
  <g>
    <text class="cls-4" transform="translate(613.11 642.28)"><tspan class="cls-13" x="0" y="0">OPTIMA</tspan><tspan class="cls-17" x="111.02" y="0">T</tspan><tspan class="cls-18" x="128.59" y="0">ECH</tspan></text>
    <path class="cls-3" d="M540.33,623.47h-1.2c-4.28-.32-7.66-3.89-7.66-8.25v-1.23h-.01c-.29,8.2-7.71,14.82-15.99,14.82l.69.09c5.08.81,9.09,4.82,9.91,9.91l.11.87c0-7.64,6.84-15.05,14.15-16.2Z"/>
    <path class="cls-5" d="M526.08,638.8c-.81-5.08-4.82-9.09-9.91-9.91-.62-.1-1.25-.15-1.9-.15h-10.2c-6.61,0-11.96,5.35-11.96,11.96v10.2c0,6.61,5.35,11.96,11.96,11.96h10.2c6.61,0,11.96-5.35,11.96-11.96v-10.2c0-.65-.05-1.28-.15-1.9Z"/>
    <path class="cls-3" d="M547.24,623.48c6.42,0,12.6,5.21,13.12,11.49l.02-.26c.33-2.99,2.86-5.32,5.94-5.32h1.31c-6.93,0-12.56-6.74-12.56-13.67"/>
    <path class="cls-5" d="M571.42,629.4h-5.1c-3.08,0-5.62,2.33-5.94,5.32-.02.22-.04.44-.04.66v5.1c0,3.3,2.68,5.98,5.98,5.98h5.1c3.3,0,5.98-2.68,5.98-5.98v-5.1c0-3.3-2.68-5.98-5.98-5.98Z"/>
    <path class="cls-5" d="M546.82,599.87h-7.06c-4.57,0-8.28,3.71-8.28,8.28v7.06c0,4.36,3.38,7.94,7.66,8.25.21.02.41.03.62.03h7.06c4.57,0,8.28-3.71,8.28-8.28v-7.06c0-4.57-3.71-8.28-8.28-8.28Z"/>
    <path class="cls-3" d="M577.4,635.23c0-4.77,3.87-9.36,8.54-9.74l-.19-.02c-2.22-.24-3.95-2.13-3.95-4.41v-.97h0c0,5.14-5.01,9.33-10.15,9.33"/>
    <path class="cls-5" d="M581.79,617.27v3.79c0,2.29,1.73,4.17,3.95,4.41.16.02.32.03.49.03h3.79c2.45,0,4.44-1.99,4.44-4.44v-3.79c0-2.45-1.99-4.44-4.44-4.44h-3.79c-2.45,0-4.44,1.99-4.44,4.44Z"/>
  </g>
</svg>